<svg width="180" height="160" viewBox="0 0 180 160" fill="none" xmlns="http://www.w3.org/2000/svg">
<path d="M112.269 41.1857C113.07 38.1192 117.465 38.1192 118.266 41.1857C124.548 65.2407 143.267 84.3391 167.255 90.8859C170.25 91.7032 170.25 95.951 167.255 96.7683C143.267 103.315 124.548 122.413 118.266 146.468C117.465 149.535 113.07 149.535 112.269 146.468C105.986 122.413 87.2677 103.315 63.2792 96.7683C60.2845 95.951 60.2845 91.7032 63.2792 90.8859C87.2677 84.3391 105.986 65.2407 112.269 41.1857Z" fill="#E5E7EB" stroke="#0F172A" stroke-width="1.03609"/>
<path d="M73.5388 13.4812C74.3361 10.4281 78.7123 10.4281 79.5096 13.4812C85.7688 37.4474 104.418 56.475 128.318 62.9975C131.3 63.8113 131.3 68.0405 128.318 68.8543C104.418 75.3768 85.7688 94.4044 79.5096 118.371C78.7123 121.424 74.3361 121.424 73.5388 118.371C67.2796 94.4044 48.63 75.3768 24.73 68.8543C21.7483 68.0405 21.7483 63.8113 24.73 62.9975C48.63 56.475 67.2796 37.4474 73.5388 13.4812Z" stroke="#0F172A" stroke-width="1.03609"/>
<path d="M126.984 10.7798C127.051 10.1088 128.029 10.1088 128.096 10.7798C128.553 15.3517 132.171 18.9713 136.741 19.4401C137.413 19.5091 137.413 20.4909 136.741 20.5599C132.171 21.0287 128.553 24.6483 128.096 29.2202C128.029 29.8912 127.051 29.8912 126.984 29.2202C126.528 24.6483 122.909 21.0287 118.34 20.5599C117.668 20.4909 117.668 19.5091 118.34 19.4401C122.909 18.9713 126.528 15.3517 126.984 10.7798Z" fill="#E5E7EB" stroke="#0F172A" stroke-width="1.03609"/>
<path d="M11.8963 39.6072C11.9027 39.5436 11.9242 39.5231 11.9352 39.514C11.9531 39.4993 11.9867 39.4844 12.0321 39.4844C12.0774 39.4844 12.111 39.4993 12.129 39.514C12.14 39.5231 12.1615 39.5436 12.1679 39.6072C12.4573 42.4818 14.7311 44.7559 17.6049 45.0484C17.6684 45.0549 17.6892 45.0765 17.6983 45.0876C17.7132 45.1058 17.7282 45.1396 17.7282 45.1852C17.7282 45.2308 17.7132 45.2646 17.6983 45.2827C17.6892 45.2939 17.6684 45.3155 17.6049 45.322C14.7311 45.6145 12.4573 47.8886 12.1679 50.7632C12.1615 50.8267 12.14 50.8473 12.129 50.8563C12.111 50.871 12.0774 50.886 12.0321 50.886C11.9867 50.886 11.9531 50.871 11.9352 50.8563C11.9242 50.8473 11.9027 50.8267 11.8963 50.7632C11.6069 47.8886 9.33308 45.6145 6.45925 45.322C6.39575 45.3155 6.37502 45.2939 6.36585 45.2827C6.35099 45.2646 6.33596 45.2308 6.33596 45.1852C6.33596 45.1396 6.35099 45.1058 6.36585 45.0876C6.37502 45.0765 6.39575 45.0549 6.45925 45.0484C9.33309 44.7559 11.6069 42.4818 11.8963 39.6072Z" fill="#E5E7EB" stroke="#0F172A" stroke-width="1.03609"/>
</svg>
