<svg width="92" height="84" viewBox="0 0 92 84" fill="none" xmlns="http://www.w3.org/2000/svg">
<path d="M31.3991 0L33.6855 9.29071C34.9796 14.5494 35.6267 17.1787 37.0011 19.2991C38.2165 21.1742 39.8354 22.754 41.7396 23.9232C43.893 25.2454 46.5374 25.828 51.8261 26.9933L62.2247 29.2844L51.8261 31.5755C46.5374 32.7408 43.893 33.3234 41.7396 34.6456C39.8354 35.8148 38.2165 37.3946 37.0011 39.2697C35.6267 41.3901 34.9796 44.0194 33.6855 49.2781L31.3991 58.5688L29.1126 49.2781C27.8185 44.0194 27.1714 41.3901 25.797 39.2697C24.5816 37.3946 22.9627 35.8148 21.0585 34.6456C18.9051 33.3234 16.2607 32.7408 10.972 31.5755L0.573364 29.2844L10.972 26.9933C16.2607 25.828 18.9051 25.2454 21.0585 23.9232C22.9627 22.754 24.5816 21.1742 25.797 19.2991C27.1714 17.1787 27.8185 14.5494 29.1126 9.2907L31.3991 0Z" fill="#0F172A"/>
<path d="M71.7752 46.2385L71.9769 47.0675C73.2576 52.3307 73.898 54.9623 75.2673 57.0867C76.4781 58.9652 78.0934 60.5494 79.9951 61.7235C82.1457 63.0512 84.7893 63.6403 90.0765 64.8184L91.4265 65.1193L90.0765 65.4201C84.7893 66.5982 82.1457 67.1873 79.9951 68.515C78.0934 69.6891 76.4781 71.2733 75.2673 73.1518C73.898 75.2762 73.2576 77.9078 71.9769 83.1711L71.7752 84L71.5734 83.1711C70.2927 77.9078 69.6523 75.2762 68.283 73.1518C67.0722 71.2733 65.4569 69.6891 63.5552 68.515C61.4046 67.1873 58.761 66.5982 53.4738 65.4201L52.1238 65.1193L53.4738 64.8184C58.761 63.6403 61.4046 63.0512 63.5552 61.7235C65.4569 60.5494 67.0722 58.9652 68.283 57.0867C69.6523 54.9623 70.2927 52.3307 71.5734 47.0675L71.7752 46.2385Z" fill="#0F172A"/>
</svg>
